<svg xmlns="http://www.w3.org/2000/svg" width="1320" height="620" viewBox="0 0 1320 620">
<rect width="1320" height="620" fill="#0d1117"/>
<text x="660.0" y="24" text-anchor="middle" fill="#c9d1d9" font-size="16" font-family="system-ui" font-weight="bold">knowX 知识图谱 — 学习路径图</text>
<text x="12" y="42" fill="#8b949e" font-size="9" font-family="system-ui">图例:</text>
<rect x="50" y="33" width="9" height="9" rx="2" fill="#e74c3c" opacity="0.7"/>
<text x="62" y="41" fill="#c9d1d9" font-size="8" font-family="system-ui">agent</text>
<rect x="112" y="33" width="9" height="9" rx="2" fill="#3498db" opacity="0.7"/>
<text x="124" y="41" fill="#c9d1d9" font-size="8" font-family="system-ui">engineering</text>
<rect x="162" y="33" width="9" height="9" rx="2" fill="#2ecc71" opacity="0.7"/>
<text x="174" y="41" fill="#c9d1d9" font-size="8" font-family="system-ui">ai_creation</text>
<rect x="270" y="33" width="9" height="9" rx="2" fill="#2ecc71" opacity="0.85"/>
<text x="282" y="41" fill="#c9d1d9" font-size="8" font-family="system-ui">已掌握</text>
<rect x="360" y="33" width="9" height="9" rx="2" fill="none" stroke="#555" stroke-width="1"/>
<text x="372" y="41" fill="#c9d1d9" font-size="8" font-family="system-ui">学习中</text>
<defs><marker id="a" markerWidth="7" markerHeight="7" refX="7" refY="3.5" orient="auto"><polygon points="0 0, 7 3.5, 0 7" fill="#30363d"/></marker></defs>
<line x1="741.5" y1="100.0" x2="1058.5" y2="100.0" stroke="#30363d" stroke-width="1.2" marker-end="url(#a)"/>
<line x1="861.5" y1="146.4" x2="1058.5" y2="113.6" stroke="#30363d" stroke-width="1.2" marker-end="url(#a)"/>
<line x1="501.5" y1="100.0" x2="1058.5" y2="100.0" stroke="#30363d" stroke-width="1.2" marker-end="url(#a)"/>
<line x1="1088.0" y1="126.0" x2="952.0" y2="194.0" stroke="#30363d" stroke-width="1.2" marker-end="url(#a)"/>
<line x1="1058.5" y1="108.2" x2="621.5" y2="151.8" stroke="#30363d" stroke-width="1.2" marker-end="url(#a)"/>
<line x1="818.5" y1="206.4" x2="621.5" y2="173.6" stroke="#30363d" stroke-width="1.2" marker-end="url(#a)"/>
<line x1="458.5" y1="160.0" x2="381.5" y2="160.0" stroke="#30363d" stroke-width="1.2" marker-end="url(#a)"/>
<line x1="621.5" y1="160.0" x2="938.5" y2="160.0" stroke="#30363d" stroke-width="1.2" marker-end="url(#a)"/>
<line x1="232.0" y1="126.0" x2="248.0" y2="134.0" stroke="#30363d" stroke-width="1.2" marker-end="url(#a)"/>
<line x1="352.0" y1="186.0" x2="368.0" y2="194.0" stroke="#30363d" stroke-width="1.2" marker-end="url(#a)"/>
<line x1="818.5" y1="120.4" x2="501.5" y2="199.6" stroke="#30363d" stroke-width="1.2" marker-end="url(#a)"/>
<line x1="848.0" y1="126.0" x2="712.0" y2="194.0" stroke="#30363d" stroke-width="1.2" marker-end="url(#a)"/>
<line x1="501.5" y1="340.0" x2="578.5" y2="340.0" stroke="#30363d" stroke-width="1.2" marker-end="url(#a)"/>
<line x1="368.0" y1="366.0" x2="352.0" y2="374.0" stroke="#30363d" stroke-width="1.2" marker-end="url(#a)"/>
<line x1="578.5" y1="353.6" x2="381.5" y2="386.4" stroke="#30363d" stroke-width="1.2" marker-end="url(#a)"/>
<line x1="381.5" y1="400.0" x2="698.5" y2="400.0" stroke="#30363d" stroke-width="1.2" marker-end="url(#a)"/>
<line x1="698.5" y1="400.0" x2="621.5" y2="400.0" stroke="#30363d" stroke-width="1.2" marker-end="url(#a)"/>
<line x1="566.0" y1="186.0" x2="754.0" y2="374.0" stroke="#30363d" stroke-width="1.2" marker-end="url(#a)"/>
<line x1="848.0" y1="126.0" x2="352.0" y2="374.0" stroke="#30363d" stroke-width="1.2" marker-end="url(#a)"/>
<line x1="501.5" y1="540.0" x2="578.5" y2="540.0" stroke="#30363d" stroke-width="1.2" marker-end="url(#a)"/>
<line x1="517.7" y1="426.0" x2="442.3" y2="514.0" stroke="#30363d" stroke-width="1.2" marker-end="url(#a)"/>
<rect x="1062.5" y="78.0" width="155" height="44" rx="6" fill="#0d1117" stroke="#3498db" stroke-width="1"/>
<rect x="1066.5" y="81.0" width="36" height="11" rx="2.5" fill="#3498db" opacity="0.35"/>
<text x="1084.5" y="89.5" text-anchor="middle" fill="#3498db" font-size="6" font-family="system-ui">engineering</text>
<text x="1140" y="103.5" text-anchor="middle" fill="#e6edf3" font-size="9.5" font-family="system-ui, sans-serif">模块边界判断</text>
<rect x="582.5" y="78.0" width="155" height="44" rx="6" fill="#0d1117" stroke="#2ecc71" stroke-width="2"/>
<circle cx="727.5" cy="88.0" r="4.5" fill="#2ecc71"/>
<text x="727.5" y="91.5" text-anchor="middle" fill="#0d1117" font-size="7" font-family="system-ui" font-weight="bold">✓</text>
<rect x="586.5" y="81.0" width="36" height="11" rx="2.5" fill="#3498db" opacity="0.35"/>
<text x="604.5" y="89.5" text-anchor="middle" fill="#3498db" font-size="6" font-family="system-ui">engineering</text>
<text x="660" y="103.5" text-anchor="middle" fill="#e6edf3" font-size="9.5" font-family="system-ui, sans-serif">单一职责原则</text>
<rect x="702.5" y="138.0" width="155" height="44" rx="6" fill="#0d1117" stroke="#3498db" stroke-width="1"/>
<rect x="706.5" y="141.0" width="36" height="11" rx="2.5" fill="#3498db" opacity="0.35"/>
<text x="724.5" y="149.5" text-anchor="middle" fill="#3498db" font-size="6" font-family="system-ui">engineering</text>
<text x="780" y="163.5" text-anchor="middle" fill="#e6edf3" font-size="9.5" font-family="system-ui, sans-serif">内聚与耦合</text>
<rect x="342.5" y="78.0" width="155" height="44" rx="6" fill="#0d1117" stroke="#2ecc71" stroke-width="2"/>
<circle cx="487.5" cy="88.0" r="4.5" fill="#2ecc71"/>
<text x="487.5" y="91.5" text-anchor="middle" fill="#0d1117" font-size="7" font-family="system-ui" font-weight="bold">✓</text>
<rect x="346.5" y="81.0" width="36" height="11" rx="2.5" fill="#3498db" opacity="0.35"/>
<text x="364.5" y="89.5" text-anchor="middle" fill="#3498db" font-size="6" font-family="system-ui">engineering</text>
<text x="420" y="99" text-anchor="middle" fill="#e6edf3" font-size="9" font-family="system-ui, sans-serif">Python import</text>
<text x="420" y="110" text-anchor="middle" fill="#e6edf3" font-size="9" font-family="system-ui, sans-serif">机制</text>
<rect x="822.5" y="198.0" width="155" height="44" rx="6" fill="#0d1117" stroke="#3498db" stroke-width="1"/>
<rect x="826.5" y="201.0" width="36" height="11" rx="2.5" fill="#3498db" opacity="0.35"/>
<text x="844.5" y="209.5" text-anchor="middle" fill="#3498db" font-size="6" font-family="system-ui">engineering</text>
<text x="900" y="223.5" text-anchor="middle" fill="#e6edf3" font-size="9.5" font-family="system-ui, sans-serif">状态管理（避免全局变量）</text>
<rect x="462.5" y="138.0" width="155" height="44" rx="6" fill="#0d1117" stroke="#3498db" stroke-width="1"/>
<rect x="466.5" y="141.0" width="36" height="11" rx="2.5" fill="#3498db" opacity="0.35"/>
<text x="484.5" y="149.5" text-anchor="middle" fill="#3498db" font-size="6" font-family="system-ui">engineering</text>
<text x="540" y="163.5" text-anchor="middle" fill="#e6edf3" font-size="9.5" font-family="system-ui, sans-serif">项目目录结构设计</text>
<rect x="102.5" y="78.0" width="155" height="44" rx="6" fill="#0d1117" stroke="#2ecc71" stroke-width="2"/>
<circle cx="247.5" cy="88.0" r="4.5" fill="#2ecc71"/>
<text x="247.5" y="91.5" text-anchor="middle" fill="#0d1117" font-size="7" font-family="system-ui" font-weight="bold">✓</text>
<rect x="106.5" y="81.0" width="36" height="11" rx="2.5" fill="#3498db" opacity="0.35"/>
<text x="124.5" y="89.5" text-anchor="middle" fill="#3498db" font-size="6" font-family="system-ui">engineering</text>
<text x="180" y="103.5" text-anchor="middle" fill="#e6edf3" font-size="9.5" font-family="system-ui, sans-serif">Git 分支策略</text>
<rect x="222.5" y="138.0" width="155" height="44" rx="6" fill="#0d1117" stroke="#3498db" stroke-width="1"/>
<rect x="226.5" y="141.0" width="36" height="11" rx="2.5" fill="#3498db" opacity="0.35"/>
<text x="244.5" y="149.5" text-anchor="middle" fill="#3498db" font-size="6" font-family="system-ui">engineering</text>
<text x="300" y="163.5" text-anchor="middle" fill="#e6edf3" font-size="9.5" font-family="system-ui, sans-serif">Git 协作工作流</text>
<rect x="822.5" y="78.0" width="155" height="44" rx="6" fill="#0d1117" stroke="#2ecc71" stroke-width="2"/>
<circle cx="967.5" cy="88.0" r="4.5" fill="#2ecc71"/>
<text x="967.5" y="91.5" text-anchor="middle" fill="#0d1117" font-size="7" font-family="system-ui" font-weight="bold">✓</text>
<rect x="826.5" y="81.0" width="36" height="11" rx="2.5" fill="#3498db" opacity="0.35"/>
<text x="844.5" y="89.5" text-anchor="middle" fill="#3498db" font-size="6" font-family="system-ui">engineering</text>
<text x="900" y="103.5" text-anchor="middle" fill="#e6edf3" font-size="9.5" font-family="system-ui, sans-serif">测试基础 (pytest)</text>
<rect x="342.5" y="198.0" width="155" height="44" rx="6" fill="#0d1117" stroke="#3498db" stroke-width="1"/>
<rect x="346.5" y="201.0" width="36" height="11" rx="2.5" fill="#3498db" opacity="0.35"/>
<text x="364.5" y="209.5" text-anchor="middle" fill="#3498db" font-size="6" font-family="system-ui">engineering</text>
<text x="420" y="223.5" text-anchor="middle" fill="#e6edf3" font-size="9.5" font-family="system-ui, sans-serif">CI/CD 基础</text>
<rect x="942.5" y="138.0" width="155" height="44" rx="6" fill="#0d1117" stroke="#3498db" stroke-width="1"/>
<rect x="946.5" y="141.0" width="36" height="11" rx="2.5" fill="#3498db" opacity="0.35"/>
<text x="964.5" y="149.5" text-anchor="middle" fill="#3498db" font-size="6" font-family="system-ui">engineering</text>
<text x="1020" y="163.5" text-anchor="middle" fill="#e6edf3" font-size="9.5" font-family="system-ui, sans-serif">Docker 容器化基础</text>
<rect x="582.5" y="198.0" width="155" height="44" rx="6" fill="#0d1117" stroke="#3498db" stroke-width="1"/>
<rect x="586.5" y="201.0" width="36" height="11" rx="2.5" fill="#3498db" opacity="0.35"/>
<text x="604.5" y="209.5" text-anchor="middle" fill="#3498db" font-size="6" font-family="system-ui">engineering</text>
<text x="660" y="223.5" text-anchor="middle" fill="#e6edf3" font-size="9.5" font-family="system-ui, sans-serif">结构化日志</text>
<rect x="342.5" y="318.0" width="155" height="44" rx="6" fill="#0d1117" stroke="#2ecc71" stroke-width="2"/>
<circle cx="487.5" cy="328.0" r="4.5" fill="#2ecc71"/>
<text x="487.5" y="331.5" text-anchor="middle" fill="#0d1117" font-size="7" font-family="system-ui" font-weight="bold">✓</text>
<rect x="346.5" y="321.0" width="36" height="11" rx="2.5" fill="#e74c3c" opacity="0.35"/>
<text x="364.5" y="329.5" text-anchor="middle" fill="#e74c3c" font-size="6" font-family="system-ui">agent</text>
<text x="420" y="343.5" text-anchor="middle" fill="#e6edf3" font-size="9.5" font-family="system-ui, sans-serif">Prompt 设计</text>
<rect x="582.5" y="318.0" width="155" height="44" rx="6" fill="#0d1117" stroke="#e74c3c" stroke-width="1"/>
<rect x="586.5" y="321.0" width="36" height="11" rx="2.5" fill="#e74c3c" opacity="0.35"/>
<text x="604.5" y="329.5" text-anchor="middle" fill="#e74c3c" font-size="6" font-family="system-ui">agent</text>
<text x="660" y="339" text-anchor="middle" fill="#e6edf3" font-size="9" font-family="system-ui, sans-serif">结构化输出 (JSON</text>
<text x="660" y="350" text-anchor="middle" fill="#e6edf3" font-size="9" font-family="system-ui, sans-serif">Schema)</text>
<rect x="222.5" y="378.0" width="155" height="44" rx="6" fill="#0d1117" stroke="#e74c3c" stroke-width="1"/>
<rect x="226.5" y="381.0" width="36" height="11" rx="2.5" fill="#e74c3c" opacity="0.35"/>
<text x="244.5" y="389.5" text-anchor="middle" fill="#e74c3c" font-size="6" font-family="system-ui">agent</text>
<text x="300" y="403.5" text-anchor="middle" fill="#e6edf3" font-size="9.5" font-family="system-ui, sans-serif">Agent 调试方法</text>
<rect x="702.5" y="378.0" width="155" height="44" rx="6" fill="#0d1117" stroke="#e74c3c" stroke-width="1"/>
<rect x="706.5" y="381.0" width="36" height="11" rx="2.5" fill="#e74c3c" opacity="0.35"/>
<text x="724.5" y="389.5" text-anchor="middle" fill="#e74c3c" font-size="6" font-family="system-ui">agent</text>
<text x="780" y="403.5" text-anchor="middle" fill="#e6edf3" font-size="9.5" font-family="system-ui, sans-serif">Skill 封装</text>
<rect x="462.5" y="378.0" width="155" height="44" rx="6" fill="#0d1117" stroke="#e74c3c" stroke-width="1"/>
<rect x="466.5" y="381.0" width="36" height="11" rx="2.5" fill="#e74c3c" opacity="0.35"/>
<text x="484.5" y="389.5" text-anchor="middle" fill="#e74c3c" font-size="6" font-family="system-ui">agent</text>
<text x="540" y="403.5" text-anchor="middle" fill="#e6edf3" font-size="9.5" font-family="system-ui, sans-serif">Agent 工作流编排</text>
<rect x="342.5" y="518.0" width="155" height="44" rx="6" fill="#0d1117" stroke="#2ecc71" stroke-width="1"/>
<rect x="346.5" y="521.0" width="36" height="11" rx="2.5" fill="#2ecc71" opacity="0.35"/>
<text x="364.5" y="529.5" text-anchor="middle" fill="#2ecc71" font-size="6" font-family="system-ui">ai_creation</text>
<text x="420" y="543.5" text-anchor="middle" fill="#e6edf3" font-size="9.5" font-family="system-ui, sans-serif">ComfyUI 工作流搭建</text>
<rect x="582.5" y="518.0" width="155" height="44" rx="6" fill="#0d1117" stroke="#2ecc71" stroke-width="1"/>
<rect x="586.5" y="521.0" width="36" height="11" rx="2.5" fill="#2ecc71" opacity="0.35"/>
<text x="604.5" y="529.5" text-anchor="middle" fill="#2ecc71" font-size="6" font-family="system-ui">ai_creation</text>
<text x="660" y="543.5" text-anchor="middle" fill="#e6edf3" font-size="9.5" font-family="system-ui, sans-serif">Seedance 视频管线</text>
<text x="12" y="250" fill="#484f58" font-size="10" font-family="system-ui" font-weight="bold" letter-spacing="1">ENGINEERING</text>
<text x="12" y="445" fill="#484f58" font-size="10" font-family="system-ui" font-weight="bold" letter-spacing="1">AGENT</text>
<text x="12" y="575" fill="#484f58" font-size="10" font-family="system-ui" font-weight="bold" letter-spacing="1">AI_CREATION</text>
<text x="660.0" y="606" text-anchor="middle" fill="#8b949e" font-size="10" font-family="system-ui">共 19 个知识点 · 已掌握 5/19 · 待学习 14 个</text>
</svg>